<svg width="72" height="72" viewBox="0 0 72 72" fill="none" xmlns="http://www.w3.org/2000/svg">
<path fill-rule="evenodd" clip-rule="evenodd" d="M55.91 65.2922C-4.61973 85.6382 -4.44502 -13.9475 56.4182 7.24027C35.7069 -10.6915 0.335732 6.90673 0.00219095 35.7024C-0.140755 48.2817 6.72065 60.8609 17.7751 67.0235C28.7185 73.1225 46.1896 74.0596 55.91 65.2922Z" fill="#EF7F1A"/>
<path fill-rule="evenodd" clip-rule="evenodd" d="M27.6066 12.561L27.6702 12.5928C27.9084 12.8469 33.1974 10.9251 33.8804 10.8139C40.8053 9.6227 47.0314 11.1475 52.9081 14.9594C59.7854 19.4224 64.0896 28.158 64.0102 36.306C63.8355 56.0802 45.5066 65.7052 27.4637 59.5744C38.5817 70.6924 71.8087 63.9898 71.9993 36.2901C72.1581 13.3552 43.8866 -1.33649 27.6066 12.561Z" fill="#EF7F1A"/>
<path fill-rule="evenodd" clip-rule="evenodd" d="M26.6696 46.1057C27.0349 43.1356 25.6848 36.4172 28.5914 34.7177C31.6091 34.7018 33.4674 39.4826 35.8658 39.7367C38.9153 40.0543 39.8524 34.3206 43.5531 34.9242L44.379 34.8289L45.8402 46.1693L50.0809 46.201L50.1127 21.1696L44.8396 21.1219C42.5683 24.4891 41.9171 32.24 35.5163 31.8588C30.1162 31.5252 28.5755 23.7744 26.209 21.1537C21.6029 20.2325 21.8729 20.9949 21.9206 24.9021V42.135C21.8571 46.741 21.3806 46.6457 26.6696 46.1057Z" fill="#EF7F1A"/>
<path fill-rule="evenodd" clip-rule="evenodd" d="M26.6696 46.1057C27.0349 43.1356 25.6848 36.4172 28.5914 34.7177C31.6091 34.7018 33.4674 39.4826 35.8658 39.7367C38.9153 40.0543 39.8524 34.3206 43.5531 34.9242L44.379 34.8289L45.8402 46.1693L50.0809 46.201L50.1127 21.1696L44.8396 21.1219C42.5683 24.4891 41.9171 32.24 35.5163 31.8588C30.1162 31.5252 28.5755 23.7744 26.209 21.1537C21.6029 20.2325 21.8729 20.9949 21.9206 24.9021V42.135C21.8571 46.741 21.3806 46.6457 26.6696 46.1057Z" fill="#EF7F1A"/>
<path fill-rule="evenodd" clip-rule="evenodd" d="M28.2737 46.2169L29.2743 46.2487C29.4649 44.1998 28.5278 41.2456 29.9573 39.6573C31.8156 38.9584 33.6421 42.5003 36.0722 42.6274C39.2329 42.8021 42.6001 35.0036 43.0766 42.9291C43.1083 43.485 43.1242 44.1204 43.1719 44.6763C43.2672 45.931 42.9813 45.9151 43.8231 46.201C44.5378 44.7874 43.9978 37.2113 42.9177 36.1471C40.5671 36.7983 39.36 41.2456 36.0563 41.1344C32.848 41.0391 31.1962 36.4013 28.9249 36.1313C28.0037 37.4178 27.7019 44.9304 28.2737 46.2169Z" fill="#EF7F1A"/>
<path fill-rule="evenodd" clip-rule="evenodd" d="M28.2737 46.2169L29.2743 46.2487C29.4649 44.1998 28.5278 41.2456 29.9573 39.6573C31.8156 38.9584 33.6421 42.5003 36.0722 42.6274C39.2329 42.8021 42.6001 35.0036 43.0766 42.9291C43.1083 43.485 43.1242 44.1204 43.1719 44.6763C43.2672 45.931 42.9813 45.9151 43.8231 46.201C44.5378 44.7874 43.9978 37.2113 42.9177 36.1471C40.5671 36.7983 39.36 41.2456 36.0563 41.1344C32.848 41.0391 31.1962 36.4013 28.9249 36.1313C28.0037 37.4178 27.7019 44.9304 28.2737 46.2169Z" fill="#EF7F1A"/>
<path fill-rule="evenodd" clip-rule="evenodd" d="M43.1877 21.1219C41.7106 21.1219 41.9171 21.4555 41.4089 22.742C41.0594 23.6314 40.7259 24.3779 40.2335 25.2038C34.8333 34.4159 29.8461 22.1861 29.0361 21.1219L27.829 21.1061C29.5126 24.092 31.7362 30.064 35.5004 30.5405C40.3447 31.1758 43.2513 22.1067 43.1877 21.1219Z" fill="#EF7F1A"/>
<path fill-rule="evenodd" clip-rule="evenodd" d="M43.1877 21.1219C41.7106 21.1219 41.9171 21.4555 41.4089 22.742C41.0594 23.6314 40.7259 24.3779 40.2335 25.2038C34.8333 34.4159 29.8461 22.1861 29.0361 21.1219L27.829 21.1061C29.5126 24.092 31.7362 30.064 35.5004 30.5405C40.3447 31.1758 43.2513 22.1067 43.1877 21.1219Z" fill="#EF7F1A"/>
<path fill-rule="evenodd" clip-rule="evenodd" d="M30.1797 40.1337C29.5443 41.6744 29.4014 44.9621 30.2432 46.2963C31.1485 45.0574 29.8143 43.4374 31.2597 42.0238C33.1339 41.9762 34.341 44.4698 36.0881 44.581C38.1529 44.7239 39.1535 41.8491 41.4247 42.2938C42.1236 43.4533 41.663 45.2798 42.4254 46.201C43.0924 45.2004 42.7113 41.1979 42.0918 40.0385C40.0906 40.0385 38.5976 43.1833 36.3104 43.2468C33.7692 43.3262 32.4986 40.1973 30.1797 40.1337Z" fill="#EF7F1A"/>
<path fill-rule="evenodd" clip-rule="evenodd" d="M30.1797 40.1337C29.5443 41.6744 29.4014 44.9621 30.2432 46.2963C31.1485 45.0574 29.8143 43.4374 31.2597 42.0238C33.1339 41.9762 34.341 44.4698 36.0881 44.581C38.1529 44.7239 39.1535 41.8491 41.4247 42.2938C42.1236 43.4533 41.663 45.2798 42.4254 46.201C43.0924 45.2004 42.7113 41.1979 42.0918 40.0385C40.0906 40.0385 38.5976 43.1833 36.3104 43.2468C33.7692 43.3262 32.4986 40.1973 30.1797 40.1337Z" fill="#EF7F1A"/>
<path fill-rule="evenodd" clip-rule="evenodd" d="M41.2659 21.0584C38.3911 21.0743 39.5506 26.125 35.5004 25.8868C32.0856 25.6803 32.4192 20.8202 29.7667 21.1219C30.7832 23.282 32.848 27.7769 35.5163 27.9833C38.6135 28.2057 40.9324 23.3297 41.2659 21.0584Z" fill="#EF7F1A"/>
<path fill-rule="evenodd" clip-rule="evenodd" d="M41.2659 21.0584C38.3911 21.0743 39.5506 26.125 35.5004 25.8868C32.0856 25.6803 32.4192 20.8202 29.7667 21.1219C30.7832 23.282 32.848 27.7769 35.5163 27.9833C38.6135 28.2057 40.9324 23.3297 41.2659 21.0584Z" fill="#EF7F1A"/>
<path fill-rule="evenodd" clip-rule="evenodd" d="M31.3074 46.1216C32.6892 45.4228 31.3074 45.8993 32.2921 44.5175C33.9916 44.1998 34.6428 46.074 36.3263 46.0422C37.7558 46.0263 38.407 44.3586 40.3924 44.4698L41.2977 46.1534C41.7265 45.2163 41.5201 43.8663 41.2183 42.8021C39.2964 42.6274 38.2799 45.1051 36.3263 45.1687C34.2298 45.2322 33.0545 42.6592 31.4503 42.548C30.8944 43.5804 30.8785 45.1051 31.3074 46.1216Z" fill="#EF7F1A"/>
<path fill-rule="evenodd" clip-rule="evenodd" d="M31.3074 46.1216C32.6892 45.4228 31.3074 45.8993 32.2921 44.5175C33.9916 44.1998 34.6428 46.074 36.3263 46.0422C37.7558 46.0263 38.407 44.3586 40.3924 44.4698L41.2977 46.1534C41.7265 45.2163 41.5201 43.8663 41.2183 42.8021C39.2964 42.6274 38.2799 45.1051 36.3263 45.1687C34.2298 45.2322 33.0545 42.6592 31.4503 42.548C30.8944 43.5804 30.8785 45.1051 31.3074 46.1216Z" fill="#EF7F1A"/>
<path fill-rule="evenodd" clip-rule="evenodd" d="M31.8792 21.2808C32.4668 24.0126 36.7234 29.0157 39.5188 21.1537C37.3429 20.8678 38.3276 23.4726 36.0246 23.8538C33.1498 24.3144 34.0233 21.3125 31.8792 21.2808Z" fill="#EF7F1A"/>
<path fill-rule="evenodd" clip-rule="evenodd" d="M31.8792 21.2808C32.4668 24.0126 36.7234 29.0157 39.5188 21.1537C37.3429 20.8678 38.3276 23.4726 36.0246 23.8538C33.1498 24.3144 34.0233 21.3125 31.8792 21.2808Z" fill="#EF7F1A"/>
<path fill-rule="evenodd" clip-rule="evenodd" d="M37.6288 21.1378H33.4357C33.9439 21.9796 34.2139 23.1708 35.5004 23.2502C36.7393 23.3297 37.4699 22.1702 37.6288 21.1378Z" fill="#EF7F1A"/>
<path fill-rule="evenodd" clip-rule="evenodd" d="M37.6288 21.1378H33.4357C33.9439 21.9796 34.2139 23.1708 35.5004 23.2502C36.7393 23.3297 37.4699 22.1702 37.6288 21.1378Z" fill="#EF7F1A"/>
<path fill-rule="evenodd" clip-rule="evenodd" d="M38.137 46.0898L40.2336 46.1692C40.0906 44.168 38.9153 45.1845 38.137 46.0898Z" fill="#EF7F1A"/>
<path fill-rule="evenodd" clip-rule="evenodd" d="M38.137 46.0898L40.2336 46.1692C40.0906 44.168 38.9153 45.1845 38.137 46.0898Z" fill="#EF7F1A"/>
<path fill-rule="evenodd" clip-rule="evenodd" d="M34.4681 46.0898L32.3715 46.1692C32.5145 44.168 33.6898 45.1845 34.4681 46.0898Z" fill="#EF7F1A"/>
<path fill-rule="evenodd" clip-rule="evenodd" d="M34.4681 46.0898L32.3715 46.1692C32.5145 44.168 33.6898 45.1845 34.4681 46.0898Z" fill="#EF7F1A"/>
</svg>
